<svg width="44" height="44" viewBox="0 0 44 44" fill="none" xmlns="http://www.w3.org/2000/svg">
<g clip-path="url(#clip0_30_819)" filter="url(#filter0_d_30_819)">
<path d="M22.375 4.5H9.625C6.5184 4.5 4 7.0184 4 10.125V22.875C4 25.9816 6.5184 28.5 9.625 28.5H22.375C25.4816 28.5 28 25.9816 28 22.875V10.125C28 7.0184 25.4816 4.5 22.375 4.5Z" fill="#F4F2ED"/>
<path d="M7.90338 23.535H10.8863V16.2907L6.625 13.0947V22.2566C6.625 22.964 7.19819 23.535 7.90338 23.535Z" fill="#4285F4"/>
<path d="M21.1138 23.5349H24.0968C24.8041 23.5349 25.3752 22.9617 25.3752 22.2565V13.0945L21.1138 16.2905" fill="#34A853"/>
<path d="M21.1138 10.7509V16.2906L25.3752 13.0947V11.3899C25.3752 9.80904 23.5705 8.90773 22.307 9.85592" fill="#FBBC04"/>
<path d="M10.8862 16.2906V10.7509L15.9998 14.586L21.1134 10.7507V16.2905L15.9998 20.1258" fill="#EA4335"/>
<path d="M6.625 11.3899V13.0945L10.8863 16.2905V10.7509L9.69316 9.85592C8.42753 8.90773 6.625 9.80904 6.625 11.3899Z" fill="#C5221F"/>
</g>
<defs>
<filter id="filter0_d_30_819" x="0" y="0.5" width="44" height="44" filterUnits="userSpaceOnUse" color-interpolation-filters="sRGB">
<feFlood flood-opacity="0" result="BackgroundImageFix"/>
<feColorMatrix in="SourceAlpha" type="matrix" values="0 0 0 0 0 0 0 0 0 0 0 0 0 0 0 0 0 0 127 0" result="hardAlpha"/>
<feOffset dx="6" dy="6"/>
<feGaussianBlur stdDeviation="5"/>
<feComposite in2="hardAlpha" operator="out"/>
<feColorMatrix type="matrix" values="0 0 0 0 0 0 0 0 0 0 0 0 0 0 0 0 0 0 0.25 0"/>
<feBlend mode="normal" in2="BackgroundImageFix" result="effect1_dropShadow_30_819"/>
<feBlend mode="normal" in="SourceGraphic" in2="effect1_dropShadow_30_819" result="shape"/>
</filter>
<clipPath id="clip0_30_819">
<rect width="24" height="24" fill="white" transform="translate(4 4.5)"/>
</clipPath>
</defs>
</svg>
