<svg width="24" height="24" viewBox="0 0 24 24" fill="none" xmlns="http://www.w3.org/2000/svg">
<rect y="0.5" width="24" height="24" rx="12" fill="#EEEEEE"/>
<g filter="url(#filter0_d_30_827)">
<path d="M12.0002 5.83325C11.1247 5.83325 10.2578 6.00569 9.44894 6.34072C8.6401 6.67575 7.90517 7.16682 7.28612 7.78587C6.03587 9.03612 5.3335 10.7318 5.3335 12.4999C5.3335 15.4466 7.24683 17.9466 9.8935 18.8333C10.2268 18.8866 10.3335 18.6799 10.3335 18.4999V17.3733C8.48683 17.7733 8.0935 16.4799 8.0935 16.4799C7.78683 15.7066 7.3535 15.4999 7.3535 15.4999C6.74683 15.0866 7.40016 15.0999 7.40016 15.0999C8.06683 15.1466 8.42016 15.7866 8.42016 15.7866C9.00016 16.7999 9.98016 16.4999 10.3602 16.3399C10.4202 15.9066 10.5935 15.6133 10.7802 15.4466C9.30016 15.2799 7.74683 14.7066 7.74683 12.1666C7.74683 11.4266 8.00016 10.8333 8.4335 10.3599C8.36683 10.1933 8.1335 9.49992 8.50016 8.59992C8.50016 8.59992 9.06016 8.41992 10.3335 9.27992C10.8602 9.13325 11.4335 9.05992 12.0002 9.05992C12.5668 9.05992 13.1402 9.13325 13.6668 9.27992C14.9402 8.41992 15.5002 8.59992 15.5002 8.59992C15.8668 9.49992 15.6335 10.1933 15.5668 10.3599C16.0002 10.8333 16.2535 11.4266 16.2535 12.1666C16.2535 14.7133 14.6935 15.2733 13.2068 15.4399C13.4468 15.6466 13.6668 16.0533 13.6668 16.6733V18.4999C13.6668 18.6799 13.7735 18.8933 14.1135 18.8333C16.7602 17.9399 18.6668 15.4466 18.6668 12.4999C18.6668 11.6244 18.4944 10.7575 18.1594 9.9487C17.8243 9.13986 17.3333 8.40493 16.7142 7.78587C16.0951 7.16682 15.3602 6.67575 14.5514 6.34072C13.7425 6.00569 12.8756 5.83325 12.0002 5.83325Z" fill="black"/>
</g>
<defs>
<filter id="filter0_d_30_827" x="0" y="0.5" width="36" height="36" filterUnits="userSpaceOnUse" color-interpolation-filters="sRGB">
<feFlood flood-opacity="0" result="BackgroundImageFix"/>
<feColorMatrix in="SourceAlpha" type="matrix" values="0 0 0 0 0 0 0 0 0 0 0 0 0 0 0 0 0 0 127 0" result="hardAlpha"/>
<feOffset dx="6" dy="6"/>
<feGaussianBlur stdDeviation="5"/>
<feComposite in2="hardAlpha" operator="out"/>
<feColorMatrix type="matrix" values="0 0 0 0 0 0 0 0 0 0 0 0 0 0 0 0 0 0 0.25 0"/>
<feBlend mode="normal" in2="BackgroundImageFix" result="effect1_dropShadow_30_827"/>
<feBlend mode="normal" in="SourceGraphic" in2="effect1_dropShadow_30_827" result="shape"/>
</filter>
</defs>
</svg>
