<svg width="44" height="39" viewBox="0 0 44 39" fill="none" xmlns="http://www.w3.org/2000/svg">
<g clip-path="url(#clip0_30_763)" filter="url(#filter0_d_30_763)">
<path d="M22.375 4.5H9.625C6.5184 4.5 4 7.0184 4 10.125V22.875C4 25.9816 6.5184 28.5 9.625 28.5H22.375C25.4816 28.5 28 25.9816 28 22.875V10.125C28 7.0184 25.4816 4.5 22.375 4.5Z" fill="url(#paint0_radial_30_763)"/>
<path d="M22.375 4.5H9.625C6.5184 4.5 4 7.0184 4 10.125V22.875C4 25.9816 6.5184 28.5 9.625 28.5H22.375C25.4816 28.5 28 25.9816 28 22.875V10.125C28 7.0184 25.4816 4.5 22.375 4.5Z" fill="url(#paint1_radial_30_763)"/>
<path d="M16.0008 7.125C13.4548 7.125 13.1352 7.13616 12.1353 7.18163C11.1372 7.22738 10.4559 7.38534 9.85984 7.61719C9.24316 7.85662 8.72013 8.17697 8.19906 8.69822C7.67753 9.21937 7.35719 9.74241 7.117 10.3588C6.8845 10.9551 6.72634 11.6366 6.68144 12.6342C6.63672 13.6342 6.625 13.9539 6.625 16.5001C6.625 19.0463 6.63625 19.3648 6.68163 20.3647C6.72756 21.3628 6.88553 22.0441 7.11719 22.6402C7.35681 23.2568 7.67716 23.7799 8.19841 24.3009C8.71938 24.8225 9.24241 25.1436 9.85862 25.383C10.4552 25.6148 11.1365 25.7728 12.1344 25.8186C13.1344 25.864 13.4538 25.8752 15.9997 25.8752C18.5461 25.8752 18.8646 25.864 19.8646 25.8186C20.8626 25.7728 21.5447 25.6148 22.1412 25.383C22.7576 25.1436 23.2799 24.8225 23.8007 24.3009C24.3223 23.7799 24.6425 23.2568 24.8828 22.6404C25.1133 22.0441 25.2715 21.3626 25.3184 20.3649C25.3633 19.365 25.375 19.0463 25.375 16.5001C25.375 13.9539 25.3633 13.6344 25.3184 12.6344C25.2715 11.6363 25.1133 10.9552 24.8828 10.3591C24.6425 9.74241 24.3223 9.21937 23.8007 8.69822C23.2793 8.17678 22.7578 7.85644 22.1406 7.61728C21.543 7.38534 20.8613 7.22728 19.8632 7.18163C18.8632 7.13616 18.5448 7.125 15.9979 7.125H16.0008ZM15.1598 8.81447C15.4095 8.81409 15.688 8.81447 16.0008 8.81447C18.5041 8.81447 18.8007 8.82347 19.7892 8.86838C20.7032 8.91019 21.1994 9.06291 21.5298 9.19125C21.9674 9.36112 22.2793 9.56428 22.6072 9.8925C22.9353 10.2206 23.1384 10.5331 23.3088 10.9706C23.4371 11.3006 23.59 11.7968 23.6316 12.7108C23.6765 13.6991 23.6863 13.9959 23.6863 16.4979C23.6863 18.9999 23.6765 19.2968 23.6316 20.2851C23.5898 21.1991 23.4371 21.6952 23.3088 22.0253C23.1389 22.4629 22.9353 22.7744 22.6072 23.1023C22.2791 23.4305 21.9676 23.6335 21.5298 23.8035C21.1997 23.9324 20.7032 24.0848 19.7892 24.1266C18.8009 24.1715 18.5041 24.1812 16.0008 24.1812C13.4975 24.1812 13.2008 24.1715 12.2126 24.1266C11.2985 24.0844 10.8024 23.9317 10.4717 23.8033C10.0342 23.6333 9.72166 23.4303 9.39353 23.1022C9.06541 22.774 8.86234 22.4623 8.692 22.0246C8.56366 21.6945 8.41075 21.1984 8.36913 20.2843C8.32422 19.296 8.31522 18.9992 8.31522 16.4956C8.31522 13.992 8.32422 13.6968 8.36913 12.7085C8.41094 11.7944 8.56366 11.2983 8.692 10.9678C8.86197 10.5303 9.06541 10.2178 9.39363 9.88969C9.72184 9.56156 10.0342 9.35841 10.4717 9.18816C10.8022 9.05925 11.2985 8.90691 12.2126 8.86491C13.0774 8.82581 13.4126 8.81409 15.1598 8.81212V8.81447ZM21.0052 10.3711C20.3841 10.3711 19.8802 10.8745 19.8802 11.4957C19.8802 12.1168 20.3841 12.6207 21.0052 12.6207C21.6263 12.6207 22.1302 12.1168 22.1302 11.4957C22.1302 10.8746 21.6263 10.3707 21.0052 10.3707V10.3711ZM16.0008 11.6856C13.3421 11.6856 11.1864 13.8413 11.1864 16.5001C11.1864 19.1589 13.3421 21.3136 16.0008 21.3136C18.6597 21.3136 20.8146 19.1589 20.8146 16.5001C20.8146 13.8413 18.6595 11.6856 16.0007 11.6856H16.0008ZM16.0008 13.375C17.7267 13.375 19.1259 14.7741 19.1259 16.5001C19.1259 18.2259 17.7267 19.6252 16.0008 19.6252C14.275 19.6252 12.8759 18.2259 12.8759 16.5001C12.8759 14.7741 14.2749 13.375 16.0008 13.375Z" fill="white"/>
</g>
<defs>
<filter id="filter0_d_30_763" x="0" y="0.5" width="44" height="44" filterUnits="userSpaceOnUse" color-interpolation-filters="sRGB">
<feFlood flood-opacity="0" result="BackgroundImageFix"/>
<feColorMatrix in="SourceAlpha" type="matrix" values="0 0 0 0 0 0 0 0 0 0 0 0 0 0 0 0 0 0 127 0" result="hardAlpha"/>
<feOffset dx="6" dy="6"/>
<feGaussianBlur stdDeviation="5"/>
<feComposite in2="hardAlpha" operator="out"/>
<feColorMatrix type="matrix" values="0 0 0 0 0 0 0 0 0 0 0 0 0 0 0 0 0 0 0.25 0"/>
<feBlend mode="normal" in2="BackgroundImageFix" result="effect1_dropShadow_30_763"/>
<feBlend mode="normal" in="SourceGraphic" in2="effect1_dropShadow_30_763" result="shape"/>
</filter>
<radialGradient id="paint0_radial_30_763" cx="0" cy="0" r="1" gradientUnits="userSpaceOnUse" gradientTransform="translate(10.375 30.3485) rotate(-90) scale(23.7858 22.1227)">
<stop stop-color="#FFDD55"/>
<stop offset="0.1" stop-color="#FFDD55"/>
<stop offset="0.5" stop-color="#FF543E"/>
<stop offset="1" stop-color="#C837AB"/>
</radialGradient>
<radialGradient id="paint1_radial_30_763" cx="0" cy="0" r="1" gradientUnits="userSpaceOnUse" gradientTransform="translate(-0.0200937 6.22884) rotate(78.681) scale(10.6324 43.827)">
<stop stop-color="#3771C8"/>
<stop offset="0.128" stop-color="#3771C8"/>
<stop offset="1" stop-color="#6600FF" stop-opacity="0"/>
</radialGradient>
<clipPath id="clip0_30_763">
<rect width="24" height="24" fill="white" transform="translate(4 4.5)"/>
</clipPath>
</defs>
</svg>
