<svg width="44" height="39" viewBox="0 0 44 39" fill="none" xmlns="http://www.w3.org/2000/svg">
<g clip-path="url(#clip0_30_738)" filter="url(#filter0_d_30_738)">
<path d="M22.375 4.5H9.625C6.5184 4.5 4 7.0184 4 10.125V22.875C4 25.9816 6.5184 28.5 9.625 28.5H22.375C25.4816 28.5 28 25.9816 28 22.875V10.125C28 7.0184 25.4816 4.5 22.375 4.5Z" fill="white"/>
<path d="M22.375 4.5H9.625C6.5184 4.5 4 7.0184 4 10.125V22.875C4 25.9816 6.5184 28.5 9.625 28.5H22.375C25.4816 28.5 28 25.9816 28 22.875V10.125C28 7.0184 25.4816 4.5 22.375 4.5Z" fill="#0A66C2"/>
<path d="M21.317 24.908H24.0611C24.1605 24.908 24.2559 24.8685 24.3262 24.7982C24.3965 24.7279 24.4361 24.6325 24.4361 24.5331L24.4375 18.7354C24.4375 15.7051 23.7845 13.3759 20.2433 13.3759C18.8972 13.3258 17.6277 14.0198 16.9427 15.1785C16.9393 15.1841 16.9342 15.1885 16.9281 15.191C16.9221 15.1934 16.9154 15.1938 16.909 15.1921C16.9027 15.1904 16.8971 15.1867 16.8931 15.1815C16.8891 15.1763 16.8869 15.17 16.8869 15.1634V14.0306C16.8869 13.9312 16.8474 13.8358 16.777 13.7655C16.7067 13.6951 16.6113 13.6556 16.5119 13.6556H13.9078C13.8083 13.6556 13.7129 13.6951 13.6426 13.7655C13.5723 13.8358 13.5328 13.9312 13.5328 14.0306V24.5325C13.5328 24.632 13.5723 24.7273 13.6426 24.7977C13.7129 24.868 13.8083 24.9075 13.9078 24.9075H16.6517C16.7511 24.9075 16.8465 24.868 16.9168 24.7977C16.9871 24.7273 17.0267 24.632 17.0267 24.5325V19.3413C17.0267 17.8734 17.3051 16.4519 19.1249 16.4519C20.9188 16.4519 20.942 18.1315 20.942 19.4363V24.533C20.942 24.6324 20.9815 24.7278 21.0519 24.7981C21.1222 24.8685 21.2176 24.908 21.317 24.908ZM7.5625 10.0901C7.5625 11.2024 8.47816 12.1176 9.5905 12.1176C10.7026 12.1175 11.6177 11.2017 11.6177 10.0897C11.6175 8.97759 10.7023 8.0625 9.59012 8.0625C8.47769 8.0625 7.5625 8.97787 7.5625 10.0901ZM8.21491 24.908H10.9624C11.0619 24.908 11.1573 24.8685 11.2276 24.7981C11.2979 24.7278 11.3374 24.6324 11.3374 24.533V14.0306C11.3374 13.9312 11.2979 13.8358 11.2276 13.7655C11.1573 13.6951 11.0619 13.6556 10.9624 13.6556H8.21491C8.11545 13.6556 8.02007 13.6951 7.94974 13.7655C7.87942 13.8358 7.83991 13.9312 7.83991 14.0306V24.533C7.83991 24.6324 7.87942 24.7278 7.94974 24.7981C8.02007 24.8685 8.11545 24.908 8.21491 24.908Z" fill="white"/>
</g>
<defs>
<filter id="filter0_d_30_738" x="0" y="0.5" width="44" height="44" filterUnits="userSpaceOnUse" color-interpolation-filters="sRGB">
<feFlood flood-opacity="0" result="BackgroundImageFix"/>
<feColorMatrix in="SourceAlpha" type="matrix" values="0 0 0 0 0 0 0 0 0 0 0 0 0 0 0 0 0 0 127 0" result="hardAlpha"/>
<feOffset dx="6" dy="6"/>
<feGaussianBlur stdDeviation="5"/>
<feComposite in2="hardAlpha" operator="out"/>
<feColorMatrix type="matrix" values="0 0 0 0 0 0 0 0 0 0 0 0 0 0 0 0 0 0 0.25 0"/>
<feBlend mode="normal" in2="BackgroundImageFix" result="effect1_dropShadow_30_738"/>
<feBlend mode="normal" in="SourceGraphic" in2="effect1_dropShadow_30_738" result="shape"/>
</filter>
<clipPath id="clip0_30_738">
<rect width="24" height="24" fill="white" transform="translate(4 4.5)"/>
</clipPath>
</defs>
</svg>
