<svg width="24" height="24" viewBox="0 0 24 24" fill="none" xmlns="http://www.w3.org/2000/svg">
<rect y="0.5" width="24" height="24" rx="12" fill="#EEEEEE"/>
<g filter="url(#filter0_d_30_829)">
<path fill-rule="evenodd" clip-rule="evenodd" d="M18.6668 12.4999C18.6668 8.81992 15.6802 5.83325 12.0002 5.83325C8.32016 5.83325 5.3335 8.81992 5.3335 12.4999C5.3335 16.1799 8.32016 19.1666 12.0002 19.1666C15.6802 19.1666 18.6668 16.1793 18.6668 12.4999ZM12.6695 12.4999C12.6695 14.1386 11.3495 15.4666 9.72283 15.4666C8.09483 15.4666 6.7755 14.1386 6.7755 12.4999C6.7755 10.8613 8.0955 9.53258 9.72216 9.53258C11.3502 9.53258 12.6695 10.8613 12.6695 12.4993M15.9028 12.4993C15.9028 14.0419 15.2428 15.2926 14.4295 15.2926C13.6148 15.2926 12.9555 14.0419 12.9555 12.4993C12.9555 10.9566 13.6155 9.70592 14.4288 9.70592C15.2422 9.70592 15.9028 10.9559 15.9028 12.4993ZM17.2242 12.4993C17.2242 13.8806 16.9922 15.0019 16.7062 15.0019C16.4202 15.0019 16.1875 13.8813 16.1875 12.4993C16.1875 11.1173 16.4195 9.99658 16.7062 9.99658C16.9922 9.99658 17.2242 11.1166 17.2242 12.4993Z" fill="black"/>
</g>
<defs>
<filter id="filter0_d_30_829" x="0" y="0.5" width="36" height="36" filterUnits="userSpaceOnUse" color-interpolation-filters="sRGB">
<feFlood flood-opacity="0" result="BackgroundImageFix"/>
<feColorMatrix in="SourceAlpha" type="matrix" values="0 0 0 0 0 0 0 0 0 0 0 0 0 0 0 0 0 0 127 0" result="hardAlpha"/>
<feOffset dx="6" dy="6"/>
<feGaussianBlur stdDeviation="5"/>
<feComposite in2="hardAlpha" operator="out"/>
<feColorMatrix type="matrix" values="0 0 0 0 0 0 0 0 0 0 0 0 0 0 0 0 0 0 0.25 0"/>
<feBlend mode="normal" in2="BackgroundImageFix" result="effect1_dropShadow_30_829"/>
<feBlend mode="normal" in="SourceGraphic" in2="effect1_dropShadow_30_829" result="shape"/>
</filter>
</defs>
</svg>
