<svg width="24" height="24" viewBox="0 0 28 30" fill="none" xmlns="http://www.w3.org/2000/svg">
<g clip-path="url(#clip0_30_735)" filter="url(#filter0_d_30_735)">
<path d="M16 28.5C22.6274 28.5 28 23.1274 28 16.5C28 9.87258 22.6274 4.5 16 4.5C9.37258 4.5 4 9.87258 4 16.5C4 23.1274 9.37258 28.5 16 28.5Z" fill="#FF4500"/>
<path d="M23.9827 16.6144C23.9827 15.6416 23.1961 14.8691 22.2374 14.8691C21.7845 14.8684 21.3489 15.0427 21.0214 15.3555C19.8197 14.4971 18.1744 13.9392 16.3433 13.8677L17.1443 10.1195L19.748 10.6773C19.7768 11.3354 20.3203 11.8648 20.9928 11.8648C21.6795 11.8648 22.2374 11.307 22.2374 10.62C22.2374 9.93339 21.6796 9.37549 20.9928 9.37549C20.5065 9.37549 20.0771 9.66161 19.8768 10.0766L16.9728 9.46136C16.887 9.44693 16.8011 9.46136 16.7438 9.5043C16.6723 9.54724 16.6294 9.61868 16.6153 9.70455L15.728 13.8819C13.8683 13.9392 12.1944 14.4971 10.9785 15.3699C10.651 15.0571 10.2153 14.8828 9.76243 14.8835C8.78959 14.8835 8.01709 15.6701 8.01709 16.6288C8.01709 17.344 8.44618 17.9448 9.04722 18.2169C9.01803 18.3918 9.00367 18.5688 9.00428 18.7462C9.00428 21.4355 12.1374 23.6245 16 23.6245C19.8627 23.6245 22.9958 21.4499 22.9958 18.7462C22.9958 18.5689 22.9815 18.3919 22.9529 18.2169C23.5536 17.9448 23.9827 17.3296 23.9827 16.6144ZM11.9942 17.8589C11.9942 17.1723 12.552 16.6144 13.239 16.6144C13.9256 16.6144 14.4835 17.1722 14.4835 17.8589C14.4835 18.5456 13.9257 19.1037 13.239 19.1037C12.5521 19.1178 11.9942 18.5456 11.9942 17.8589ZM18.9614 21.1637C18.103 22.0222 16.472 22.0795 16 22.0795C15.5136 22.0795 13.8827 22.0077 13.0384 21.1637C12.9099 21.035 12.9099 20.8346 13.0384 20.7059C13.1672 20.5774 13.3675 20.5774 13.4963 20.7059C14.0401 21.2497 15.1846 21.4355 16 21.4355C16.8154 21.4355 17.9742 21.2496 18.5035 20.7059C18.6323 20.5774 18.8326 20.5774 18.9614 20.7059C19.0757 20.8346 19.0757 21.035 18.9614 21.1637ZM18.7323 19.1179C18.0456 19.1179 17.4878 18.5601 17.4878 17.8734C17.4878 17.1866 18.0456 16.6288 18.7323 16.6288C19.4192 16.6288 19.9771 17.1866 19.9771 17.8734C19.9771 18.5456 19.4192 19.1179 18.7323 19.1179Z" fill="white"/>
</g>
<defs>
<filter id="filter0_d_30_735" x="0" y="0.5" width="44" height="44" filterUnits="userSpaceOnUse" color-interpolation-filters="sRGB">
<feFlood flood-opacity="0" result="BackgroundImageFix"/>
<feColorMatrix in="SourceAlpha" type="matrix" values="0 0 0 0 0 0 0 0 0 0 0 0 0 0 0 0 0 0 127 0" result="hardAlpha"/>
<feOffset dx="6" dy="6"/>
<feGaussianBlur stdDeviation="5"/>
<feComposite in2="hardAlpha" operator="out"/>
<feColorMatrix type="matrix" values="0 0 0 0 0 0 0 0 0 0 0 0 0 0 0 0 0 0 0.25 0"/>
<feBlend mode="normal" in2="BackgroundImageFix" result="effect1_dropShadow_30_735"/>
<feBlend mode="normal" in="SourceGraphic" in2="effect1_dropShadow_30_735" result="shape"/>
</filter>
<clipPath id="clip0_30_735">
<rect width="24" height="24" fill="white" transform="translate(4 4.5)"/>
</clipPath>
</defs>
</svg>
