<svg width="180" height="180" viewBox="0 0 180 180" fill="none" xmlns="http://www.w3.org/2000/svg">
<path opacity="0.2" d="M153.75 26.25H26.25C20.0368 26.25 15 31.2868 15 37.5V150C15 156.213 20.0368 161.25 26.25 161.25H153.75C159.963 161.25 165 156.213 165 150V37.5C165 31.2868 159.963 26.25 153.75 26.25Z" fill="black"/>
<path d="M153.75 22.5H26.25C20.0368 22.5 15 27.5368 15 33.75V146.25C15 152.463 20.0368 157.5 26.25 157.5H153.75C159.963 157.5 165 152.463 165 146.25V33.75C165 27.5368 159.963 22.5 153.75 22.5Z" fill="#282C34"/>
<path opacity="0.1" d="M26.25 22.5C20.0175 22.5 15 27.5175 15 33.75V37.5C15 31.2675 20.0175 26.25 26.25 26.25H153.75C159.983 26.25 165 31.2675 165 37.5V33.75C165 27.5175 159.983 22.5 153.75 22.5H26.25Z" fill="#DFDFDF"/>
<path opacity="0.2" d="M122.25 97.75H84.75C82.6789 97.75 81 99.4289 81 101.5V109C81 111.071 82.6789 112.75 84.75 112.75H122.25C124.321 112.75 126 111.071 126 109V101.5C126 99.4289 124.321 97.75 122.25 97.75Z" fill="black"/>
<path d="M122.25 94H84.75C82.6789 94 81 95.6789 81 97.75V105.25C81 107.321 82.6789 109 84.75 109H122.25C124.321 109 126 107.321 126 105.25V97.75C126 95.6789 124.321 94 122.25 94Z" fill="#D9E1EE"/>
<path d="M65.248 98.75C65.248 97.1289 64.916 95.8496 64.252 94.9121C63.5879 93.9746 62.4941 93.0957 60.9707 92.2754C57.9824 90.9473 55.7656 89.6777 54.3203 88.4668C52.8945 87.2363 51.8301 85.8398 51.127 84.2773C50.4238 82.6953 50.0723 80.8203 50.0723 78.6523C50.0723 75.4102 50.9707 72.7344 52.7676 70.625C54.5645 68.4961 56.9375 67.2363 59.8867 66.8457V60.5762H64.3105V66.9629C67.2402 67.5293 69.5156 69.0137 71.1367 71.416C72.7773 73.8184 73.5977 76.8652 73.5977 80.5566H65.3066C65.3066 78.2129 64.9648 76.4648 64.2812 75.3125C63.6172 74.1602 62.748 73.584 61.6738 73.584C60.6387 73.584 59.8281 74.0332 59.2422 74.9316C58.6562 75.8301 58.3633 77.0801 58.3633 78.6816C58.3633 80.0684 58.666 81.2207 59.2715 82.1387C59.877 83.0566 61.0293 84.0137 62.7285 85.0098C65.8535 86.4941 68.0996 87.8516 69.4668 89.082C70.8535 90.293 71.8789 91.6699 72.543 93.2129C73.207 94.7559 73.5391 96.582 73.5391 98.6914C73.5391 101.992 72.6602 104.678 70.9023 106.748C69.1641 108.818 66.752 110.059 63.666 110.469V116.299H59.2715V110.469C55.8926 109.98 53.2852 108.545 51.4492 106.162C49.6133 103.76 48.6953 100.566 48.6953 96.582H56.9863C56.9863 98.8867 57.3574 100.664 58.0996 101.914C58.8418 103.145 59.9551 103.76 61.4395 103.76C62.6309 103.76 63.5586 103.32 64.2227 102.441C64.9062 101.543 65.248 100.312 65.248 98.75Z" fill="black"/>
<path d="M63.248 97.75C63.248 96.1289 62.916 94.8496 62.252 93.9121C61.5879 92.9746 60.4941 92.0957 58.9707 91.2754C55.9824 89.9473 53.7656 88.6777 52.3203 87.4668C50.8945 86.2363 49.8301 84.8398 49.127 83.2773C48.4238 81.6953 48.0723 79.8203 48.0723 77.6523C48.0723 74.4102 48.9707 71.7344 50.7676 69.625C52.5645 67.4961 54.9375 66.2363 57.8867 65.8457V59.5762H62.3105V65.9629C65.2402 66.5293 67.5156 68.0137 69.1367 70.416C70.7773 72.8184 71.5977 75.8652 71.5977 79.5566H63.3066C63.3066 77.2129 62.9648 75.4648 62.2812 74.3125C61.6172 73.1602 60.748 72.584 59.6738 72.584C58.6387 72.584 57.8281 73.0332 57.2422 73.9316C56.6562 74.8301 56.3633 76.0801 56.3633 77.6816C56.3633 79.0684 56.666 80.2207 57.2715 81.1387C57.877 82.0566 59.0293 83.0137 60.7285 84.0098C63.8535 85.4941 66.0996 86.8516 67.4668 88.082C68.8535 89.293 69.8789 90.6699 70.543 92.2129C71.207 93.7559 71.5391 95.582 71.5391 97.6914C71.5391 100.992 70.6602 103.678 68.9023 105.748C67.1641 107.818 64.752 109.059 61.666 109.469V115.299H57.2715V109.469C53.8926 108.98 51.2852 107.545 49.4492 105.162C47.6133 102.76 46.6953 99.5664 46.6953 95.582H54.9863C54.9863 97.8867 55.3574 99.6641 56.0996 100.914C56.8418 102.145 57.9551 102.76 59.4395 102.76C60.6309 102.76 61.5586 102.32 62.2227 101.441C62.9062 100.543 63.248 99.3125 63.248 97.75Z" fill="#D9E1EE"/>
</svg>
